<svg width="921" height="855" viewBox="0 0 921 855" fill="none" xmlns="http://www.w3.org/2000/svg">
<g filter="url(#filter0_b)">
<path fill-rule="evenodd" clip-rule="evenodd" d="M921 0H-24V885H921V0ZM638.811 210.976C649.054 215.169 650.082 217.044 651.109 224.7L654.271 224.764V198.459H651.109C649.971 207.847 648.944 209.213 642.336 206.703C627.952 201.255 609.442 193.71 594.757 187.642C613.662 180.447 636.314 172.091 644.613 169.232C648.833 167.628 650.192 168.089 651.109 176.555H654.271V147.503L651.109 147.503C650.43 154.476 649.291 156.445 640.866 159.622C624.016 166.151 597.381 175.983 579.06 182.734V186.498C590.145 190.902 616.037 201.584 630.281 207.46L630.283 207.461L630.285 207.462L630.288 207.463L630.289 207.463C634.18 209.069 637.2 210.315 638.811 210.976ZM580.309 273.384H583.471C584.482 282.756 584.941 283.677 594.536 283.677H639.839C649.623 283.677 650.082 282.756 651.109 273.384H654.271V304.041H651.109C650.082 294.51 649.623 293.621 639.839 293.621H594.646C584.862 293.621 584.514 294.542 583.581 304.041H580.42L580.309 273.384ZM579.567 417.058C579.476 418.213 579.391 419.282 579.391 420.488L582.569 420.949C583.42 417.691 585.246 414.774 587.801 412.593C591.494 409.312 595.414 406.298 599.53 403.571C604.651 400.124 612.27 395.216 615.811 393.151C619.447 401.554 625.596 407.908 635.38 407.908C638.344 408.039 641.29 407.389 643.926 406.024C646.563 404.659 648.799 402.625 650.413 400.124C653.258 395.788 654.286 390.181 654.286 381.826V352.662H651.124C650.081 361.7 649.733 362.955 640.059 362.955H594.645C585.05 362.955 584.592 362.193 583.58 352.662H580.419L580.419 383.271H583.58C584.402 374.122 584.971 372.851 594.645 372.851H612.523V376.87C612.523 382.636 611.844 384.113 608.192 386.4C606.486 387.479 604.661 388.597 602.787 389.744L602.785 389.746L602.785 389.746C598.287 392.5 593.508 395.427 589.413 398.409C582.363 403.444 580.198 407.908 579.629 416.263C579.608 416.532 579.588 416.794 579.567 417.052L579.567 417.057L579.567 417.058ZM619.731 390.864C617.344 388.005 616.443 384.24 616.443 378.284V372.851H644.327C647.283 372.851 648.421 373.201 649.212 374.233C649.907 375.027 650.35 376.981 650.35 380.301C650.35 389.101 645.924 397.218 633.736 397.218C627.635 397.218 623.035 395.327 619.731 390.864ZM651.109 550.768C650.303 543.462 649.165 541.047 643.933 540.714C643.535 540.7 643.124 540.685 642.693 540.669C639.181 540.541 634.355 540.364 624.964 540.364H579.313L579.313 536.012L638.811 487.073H610.358C600.115 487.073 594.994 487.406 591.69 487.644C585.889 487.867 584.182 490.726 583.502 498.954H580.341L580.341 471.173H583.502C584.071 478.257 585.778 481.005 591.406 481.465C595.057 481.799 600.179 482.037 610.532 482.037H639.491C642.652 482.037 644.502 481.799 647.015 479.75C649.86 477.574 650.54 475.175 651.109 469.568H654.271V486.723L597.017 535.218H624.933C635.508 535.218 640.408 534.995 643.822 534.646C648.944 534.296 650.54 531.676 651.109 522.526H654.271V550.768H651.109ZM583.471 646.628H580.31L580.215 674.806H583.376C584.277 666.689 585.194 665.657 595.089 662.004C614.785 654.856 636.299 646.961 655.757 639.766L655.077 636.096L595.327 612.429C585.084 608.426 584.277 606.599 583.376 599.388H580.215L580.215 625.803H583.376C584.562 616.432 585.463 614.827 592.861 617.337C595.693 618.296 598.391 619.294 601.196 620.331C603.086 621.031 605.025 621.748 607.087 622.484V647.199C600.462 649.419 594.96 651.461 590.781 653.012C590.443 653.138 590.114 653.26 589.794 653.378C585.51 654.967 584.372 654.061 583.471 646.628ZM611.845 624.199C620.839 627.63 631.193 631.522 640.978 635.191L611.845 645.595L611.845 624.199Z" fill="white" fill-opacity="0.85"/>
</g>
<defs>
<filter id="filter0_b" x="-64" y="-40" width="1025" height="965" filterUnits="userSpaceOnUse" color-interpolation-filters="sRGB">
<feFlood flood-opacity="0" result="BackgroundImageFix"/>
<feGaussianBlur in="BackgroundImage" stdDeviation="20"/>
<feComposite in2="SourceAlpha" operator="in" result="effect1_backgroundBlur"/>
<feBlend mode="normal" in="SourceGraphic" in2="effect1_backgroundBlur" result="shape"/>
</filter>
</defs>
</svg>
