<svg width="25" height="21" viewBox="0 0 25 21" fill="none" xmlns="http://www.w3.org/2000/svg">
<path d="M4.99166 7.69714L4.99166 8.64914H4.58566C3.98833 8.64914 3.47966 8.83114 3.05966 9.19514C2.64899 9.55914 2.44366 10.0445 2.44366 10.6511L2.44366 14.5151L1.36566 14.5151L1.36566 7.69714L2.37366 7.69714L2.37366 8.66314C2.87766 7.9818 3.58233 7.64114 4.48766 7.64114C4.66499 7.64114 4.83299 7.6598 4.99166 7.69714ZM6.35392 11.7991L6.35392 7.69714L7.41792 7.69714L7.41792 11.8691C7.41792 12.4105 7.58126 12.8491 7.90792 13.1851C8.24392 13.5118 8.66859 13.6751 9.18193 13.6751C9.68592 13.6751 10.1013 13.5071 10.4279 13.1711C10.7546 12.8351 10.9179 12.4011 10.9179 11.8691L10.9179 7.69714L11.9959 7.69714L11.9959 11.7991C11.9959 12.6485 11.7253 13.3391 11.1839 13.8711C10.6519 14.4031 9.98459 14.6691 9.18193 14.6691C8.36992 14.6691 7.69326 14.4031 7.15192 13.8711C6.61992 13.3391 6.35392 12.6485 6.35392 11.7991Z" fill="black"/>
<path d="M16.1216 8.4917L19.7219 11.9369L23.3065 8.47533" stroke="black" stroke-width="0.996622" stroke-linecap="round" stroke-linejoin="round"/>
</svg>
